<?xml version="1.0" encoding="UTF-8" standalone="no"?>
<!DOCTYPE svg PUBLIC "-//W3C//DTD SVG 1.1//EN" "http://www.w3.org/Graphics/SVG/1.1/DTD/svg11.dtd">
<svg width="100%" height="100%" viewBox="0 0 800 1280" version="1.1" xmlns="http://www.w3.org/2000/svg" xmlns:xlink="http://www.w3.org/1999/xlink" xml:space="preserve" xmlns:serif="http://www.serif.com/" style="fill-rule:evenodd;clip-rule:evenodd;stroke-linejoin:round;stroke-miterlimit:1.41421;">
    <g transform="matrix(4.48412,0,0,4.48412,-1362.32,-3757.93)">
        <g transform="matrix(0.205474,0,0,0.229302,316.225,834.32)">
            <path d="M215.877,743.256C155.534,704.694 161.784,587.285 177.428,553.455C202.075,500.154 282.562,436.514 341.354,349.659C380.412,291.959 382.725,252.704 363.951,232.346C361.038,229.187 356.7,224.478 356.7,224.478C356.7,224.478 434.329,270.218 450.186,327.605C456.615,350.871 458.721,397.191 440.404,433.892C439.697,435.308 429.508,448.245 428.395,449.266C404.978,470.747 376.949,501.668 382.608,524.552C388.884,549.933 431.186,566.213 450.448,565.72C472.93,565.144 491.718,562.506 505.975,553.685C520.989,544.396 530.7,527.652 523.093,474.909C521.321,462.624 498.718,415.704 490.852,398.701C489.358,395.472 485.83,389.637 485.83,389.637C485.83,389.637 545.301,431.581 569.634,468.856C611.246,532.599 612.97,562.643 612.97,588.777C612.97,611.943 635.444,720.657 514.482,786.589C501.726,763.123 469.033,740.891 460.065,723.005C439.789,682.561 456.466,655.613 460.749,649.364C462.669,647.258 412.024,672.359 407.716,680.376C386.165,720.484 406.406,735.054 407.716,765.635C408.671,787.906 381.075,799.743 348.272,795.597C343.035,794.935 321.004,788.621 316.803,757.247C312.863,727.825 370.799,693.218 368.81,652.467C365.634,587.405 310.675,555.593 310.675,555.593C310.675,555.593 333.415,606.407 313.681,643.99C298.907,672.127 233.83,730.772 215.877,743.256Z" style="fill:url(#_Linear1);"/>
        </g>
        <g transform="matrix(-0.205474,0,0,0.229302,490.638,885.281)">
            <path d="M446.799,317.665C416.799,339.259 385.148,340.669 354.193,328.955C354.193,328.955 355.83,326.171 356.13,325.623C380.638,280.925 379.991,249.739 363.951,232.346C361.038,229.187 356.7,224.478 356.7,224.478C356.7,224.478 423.98,264.12 446.064,315.896C446.315,316.484 446.799,317.665 446.799,317.665Z" style="fill:url(#_Linear2);"/>
        </g>
        <g transform="matrix(0.205474,0,0,0.229302,294.857,840.081)">
            <path d="M441.577,306.624C409.654,354.602 370.475,399.695 328.427,443.647C328.427,443.647 328.103,442.425 327.946,441.811C320.447,412.423 321.171,379.476 341.354,349.659C380.412,291.959 382.725,252.704 363.951,232.346C361.038,229.187 356.7,224.478 356.7,224.478C356.7,224.478 414.936,258.791 440.831,305.266C441.083,305.717 441.577,306.624 441.577,306.624Z" style="fill:url(#_Linear3);"/>
        </g>
        <g>
            <g transform="matrix(0.894671,0.446725,-0.144865,0.290127,182.175,565.273)">
                <path d="M456.016,962.881C413.459,986.883 373.545,997.081 331.838,1005.86C329.247,1017.91 331.635,1031.42 335.053,1038.63C377.441,1025.51 415.489,1023.94 456.816,1013.45C451.527,1001.35 449.914,985.775 456.016,962.881Z" style="fill:url(#_Linear4);"/>
            </g>
            <g transform="matrix(1.2244,0,0,1.31047,-96.8689,-329.141)">
                <path d="M447.882,1052.37C450.846,1052.37 452.027,1056.2 452.027,1058.92C452.027,1061.63 448.25,1063.85 445.302,1063.55C441.958,1063.21 441.033,1058.86 441.901,1056.92C443.008,1054.44 444.919,1052.37 447.882,1052.37Z" style="fill:rgb(127,75,25);"/>
            </g>
        </g>
        <g transform="matrix(-1,0,0,1,786.026,0)">
            <g transform="matrix(-1,0,0,1,786.026,0)">
                <path d="M386.309,1040.17L391.478,1042.4C374.653,1050.06 359.41,1056.38 341.965,1063.37C344.945,1057.5 344.131,1052.26 335.356,1048.34C350.148,1044.06 362.317,1040.77 376.235,1035.83L386.309,1040.17ZM394.084,1028.06C414.137,1020.61 432.686,1013.68 452.68,1005.34C456.744,1007.68 457.545,1013.64 455.531,1017.26C438.99,1023.55 424.31,1026.4 408.792,1033.39L406.534,1032.61L394.084,1028.06Z" style="fill:url(#_Linear5);"/>
            </g>
            <g transform="matrix(1.2244,0,0,1.31047,-96.8689,-329.141)">
                <path d="M447.882,1052.37C450.846,1052.37 452.027,1056.2 452.027,1058.92C452.027,1061.63 448.25,1063.85 445.302,1063.55C441.958,1063.21 441.033,1058.86 441.901,1056.92C443.008,1054.44 444.919,1052.37 447.882,1052.37Z" style="fill:rgb(127,75,25);"/>
            </g>
        </g>
    </g>
    <defs>
        <linearGradient id="_Linear1" x1="0" y1="0" x2="1" y2="0" gradientUnits="userSpaceOnUse" gradientTransform="matrix(-12.4265,-383.051,427.472,-11.1352,372.641,768.203)"><stop offset="0" style="stop-color:rgb(249,127,9);stop-opacity:1"/><stop offset="1" style="stop-color:rgb(249,172,9);stop-opacity:1"/></linearGradient>
        <linearGradient id="_Linear2" x1="0" y1="0" x2="1" y2="0" gradientUnits="userSpaceOnUse" gradientTransform="matrix(-12.4265,-383.051,427.472,-11.1352,372.641,768.203)"><stop offset="0" style="stop-color:rgb(249,127,9);stop-opacity:1"/><stop offset="1" style="stop-color:rgb(249,172,9);stop-opacity:1"/></linearGradient>
        <linearGradient id="_Linear3" x1="0" y1="0" x2="1" y2="0" gradientUnits="userSpaceOnUse" gradientTransform="matrix(-12.4265,-383.051,427.472,-11.1352,372.641,768.203)"><stop offset="0" style="stop-color:rgb(249,127,9);stop-opacity:1"/><stop offset="1" style="stop-color:rgb(249,172,9);stop-opacity:1"/></linearGradient>
        <linearGradient id="_Linear4" x1="0" y1="0" x2="1" y2="0" gradientUnits="userSpaceOnUse" gradientTransform="matrix(1.65149,34.1137,-11.0625,5.09276,390.645,988.82)"><stop offset="0" style="stop-color:rgb(54,28,4);stop-opacity:1"/><stop offset="1" style="stop-color:rgb(84,44,4);stop-opacity:1"/></linearGradient>
        <linearGradient id="_Linear5" x1="0" y1="0" x2="1" y2="0" gradientUnits="userSpaceOnUse" gradientTransform="matrix(2.84571,11.3735,-11.3735,2.84571,400,1026.22)"><stop offset="0" style="stop-color:rgb(54,28,4);stop-opacity:1"/><stop offset="1" style="stop-color:rgb(84,44,4);stop-opacity:1"/></linearGradient>
    </defs>
</svg>
